<?xml version="1.0" encoding="UTF-8"?>
<svg width="2108px" height="1732px" viewBox="0 0 2108 1732" version="1.1" xmlns="http://www.w3.org/2000/svg" xmlns:xlink="http://www.w3.org/1999/xlink">
    <!-- Generator: Sketch 51.3 (57544) - http://www.bohemiancoding.com/sketch -->
    <title>Illustration-Sign-Up-Page</title>
    <desc>Created with Sketch.</desc>
    <defs>
        <linearGradient x1="88.3166675%" y1="14.5651353%" x2="0%" y2="72.353652%" id="linearGradient-1">
            <stop stop-color="#D6F7FE" stop-opacity="0" offset="0%"></stop>
            <stop stop-color="#ADEBFC" offset="100%"></stop>
        </linearGradient>
    </defs>
    <g id="Page-1" stroke="none" stroke-width="1" fill="none" fill-rule="evenodd">
        <g id="Illustration-Sign-Up-Page">
            <path d="M1205,1730 C1827.09,1714.89 2122.68,1132.09 2014,910 C1935.3,749.181 1776.3,883.75 1594,662 C1426.89,458.734 1413.37,373.27 1253,187 C1031.976,-69.72 638.682,-72.412 445,245 C319.654,450.422 460.238,692.829 464,962 C467.152,1187.54 380.663,1311.71 472,1469 C629.156,1739.63 985.054,1735.34 1205,1730 Z" id="Shape_2052_copy" fill="#000000" fill-rule="nonzero" opacity="0.02"></path>
            <path d="M1103,1730 C1725.09,1714.89 2020.68,1132.09 1912,910 C1833.3,749.181 1674.3,883.75 1492,662 C1324.89,458.734 1311.37,373.27 1151,187 C929.976,-69.72 536.682,-72.412 343,245 C217.654,450.422 358.238,692.829 362,962 C365.152,1187.54 278.663,1311.71 370,1469 C527.156,1739.63 883.054,1735.34 1103,1730 Z" id="Shape" fill="#000000" fill-rule="nonzero" opacity="0.04"></path>
            <path d="M94.623,1302.05 C279.087,1106.16 357.211,561.213 323.312,391.025 C323.312,391.025 295.386,980.85 57.422,1284.24 L94.623,1302.05 Z" id="Shape" fill="#54C66F" opacity="0.4"></path>
            <g id="Group" transform="translate(0.000000, 624.000000)">
                <path d="M37.7,49.648 C23.91,62.278 16.687,73.534 10.924,90.866 C-1.77,171.479 84.204,221.551 87.775,297.32 C89.845,341.25 16.44,389.67 0.763,436.82 C-3.987,498.74 44.321,553.2 33.863,588.51 C13.586,647.67 105.153,701.56 130.039,689.09 C178.788,658.87 154.529,595.01 161.653,548.6 C169.586333,518.59 177.519667,488.583333 185.453,458.58 C191.853,436.77 215.837,396.9 235.139,382.61 C251.057,370.82 264.763,368.23 275.318,349.17 C313.985,279.35 336.985,191.04 320.488,112.861 C311.377,92.079 327.288,65.686 315.532,47.383 C306.762,25.313 179.042,-48.088 37.7,49.648 Z" id="Shape" fill="#54C66F"></path>
                <path d="M151.592,61.169 C135.067,69.928 125.245,79.005 115.307,94.33 C82.749,169.156 153.381,239.218 137.784,313.44 C128.742,356.47 45.51,384.89 18.478,426.58 C-1.692,485.32 31.378,550.16 12.371,581.7 C-22.129,633.86 52.952,709.02 80.178,703.2 C134.967,686.21 127.542,618.31 146.11,575.18 C161.332,548.14 176.555333,521.096667 191.78,494.05 C203.456,474.55 236.701,441.99 258.98,433.01 C277.352,425.6 291.273,426.53 306.28,410.74 C361.267,352.89 405.737,273.21 409.427,193.4 C405.833,171 427.874,149.455 421.094,128.788 C418.168,105.227 312.992,2.1 151.592,61.169 Z" id="Shape_3_copy_2" fill="#FFFFFF" opacity="0.1"></path>
            </g>
            <g id="Group" transform="translate(9.000000, 479.000000)">
                <path d="M203.32,159.522 C185.58,168.686 174.996,178.267 164.22,194.522 C128.666,274.048 203.364,349.667 185.931,428.745 C175.825,474.585 86.638,503.985 57.331,548.185 C35.176,610.675 69.812,680.295 49.185,713.755 C11.785,769.055 91.192,850.175 120.329,844.275 C179.02,826.745 171.8,754.165 192.082,708.325 L241.705,622.215 C254.378,601.525 290.224,567.145 314.112,557.805 C333.812,550.105 348.668,551.255 364.863,534.565 C424.2,473.42 472.522,388.84 477.3,303.669 C473.7,279.708 497.461,256.955 490.436,234.809 C487.551,209.618 376.306,98.3 203.32,159.522 Z" id="Shape_3_copy" fill="#607ADF"></path>
                <path d="M163.961,18.842 C146.221,28.006 135.636,37.587 124.861,53.842 C89.309,133.363 164.008,208.982 146.574,288.059 C136.467,333.9 47.28,363.3 17.976,407.5 C-4.18,469.99 30.457,539.61 9.83,573.07 C-27.57,628.37 51.836,709.49 80.973,703.59 C139.663,686.06 132.444,613.48 152.726,567.64 L202.349,481.53 C215.023,460.84 250.868,426.46 274.756,417.12 C294.456,409.42 309.312,410.57 325.507,393.88 C384.836,332.735 433.162,248.162 437.938,162.988 C434.338,139.028 458.1,116.275 451.075,94.129 C448.192,68.938 336.947,-42.385 163.961,18.842 Z" id="Shape_3_copy_3" fill="#FFFFFF" opacity="0.1"></path>
            </g>
            <path d="M135.871,1321.22 C198.841,1104.42 560.026,816.42 697.751,768.708 C697.751,768.708 282.608,1039.4 164.667,1340.608 L135.871,1321.22 Z" id="Shape_4_copy" fill="#54C66F"></path>
            <path d="M144,1322.73 C82.675,1176.71 153.11,860.53 207.408,773.851 C207.408,773.851 99.794,1104.351 168.327,1320.63 L144,1322.73 Z" id="Shape_4_copy_2" fill="#54C66F"></path>
            <path d="M151.737,1331.59 C284.783,1180.55 331.777,770.2 303.153,643.365 C303.153,643.365 294.353,1086.23 123.746,1319.08 L151.737,1331.59 Z" id="Shape_4_copy_3" fill="#54C66F"></path>
            <rect id="Rounded_Rectangle_3" fill="#B7B7B7" fill-rule="nonzero" x="711" y="203" width="883" height="627" rx="10"></rect>
            <rect id="Rounded_Rectangle_3_copy" fill="#FFFFFF" fill-rule="nonzero" x="731" y="223" width="843" height="587" rx="10"></rect>
            <path d="M735,810 C806.837,753.35 845.943,643.585 927,628 C1120.058,590.879 1355.38,760.888 1431,689 C1468.26,653.581 1431.25,587.18 1479,539 C1499.15,518.669 1537.04,507.621 1574,505 C1573.67,603 1574.33,712 1574,810 C1300,811.333 1009,808.667 735,810 Z" id="Shape" fill="#B0F0B4" opacity="0.51"></path>
            <rect id="Rounded_Rectangle_1" fill="#79A5FF" fill-rule="nonzero" x="1283" y="292" width="359" height="99" rx="10"></rect>
            <g id="_1-2" transform="translate(1357.000000, 320.000000)" stroke="#FFFFFF" stroke-width="10">
                <path d="M0.01,0.089 L211.01,0.089" id="Shape"></path>
                <path d="M0.01,32.917 L211.01,32.917" id="Shape_2053_copy"></path>
            </g>
            <rect id="Rounded_Rectangle_1-2" fill="#79A5FF" fill-rule="nonzero" x="633" y="442" width="539" height="109" rx="10"></rect>
            <g id="_1-3" transform="translate(697.000000, 475.000000)" stroke="#FFFFFF" stroke-width="10">
                <path d="M0.013,0.089 L411.006,0.089" id="Shape"></path>
                <path d="M0.013,32.917 L411.006,32.917" id="Shape_2053_copy-2"></path>
            </g>
            <rect id="Rounded_Rectangle_1-3" fill="#79A5FF" fill-rule="nonzero" x="1103" y="602" width="539" height="109" rx="10"></rect>
            <g id="_1-4" transform="translate(1167.000000, 635.000000)" stroke="#FFFFFF" stroke-width="10">
                <path d="M0.01,0.089 L411.01,0.089" id="Shape"></path>
                <path d="M0.01,32.917 L411.01,32.917" id="Shape_2053_copy-3"></path>
            </g>
            <g id="right" transform="translate(1691.000000, 424.000000)">
                <path d="M203.64,29.43 L255.090007,0.503 C255.090007,0.503 255.3,137.403 180.49,180.524 C93.85,230.467 43.41,221.824 39.68,222.265 L36.5,188.948 C36.5,188.948 146.3,165.356 168.89,126.425 C196.9,78.145 203.64,29.43 203.64,29.43 Z" id="Shape" fill="#FED1A6"></path>
                <path d="M15.35,191.7 L36.88,189.723 L40.06,223.04 L18.53,225.018 C12.5581635,225.623724 6.71930348,222.984737 3.22808448,218.102 C-0.263134528,213.219262 -0.871928308,206.840712 1.63261704,201.385715 C4.13716238,195.930719 9.37140109,192.234872 15.35,191.7 Z" id="Shape" fill="#FED1A6"></path>
                <path d="M179.18,182.789 C180.05,184.049 155.61,142.476 154.62,141.289 C173.04,112.718 176.78,78.183 176.78,78.183 L236.55,88.083 C236.55,88.083 228.72,141.525 179.18,182.789 Z" id="Shape" fill="#D2593F"></path>
            </g>
            <g id="Male-Buyer_copy" transform="translate(1860.000000, 182.000000)">
                <g id="right-2" transform="translate(111.000000, 1075.000000)">
                    <polygon id="Shape" fill="#FCC997" points="47.06 0.59 90.63 0.59 90.63 53.38 47.06 53.38"></polygon>
                    <path d="M43.63,21.37 C54.32,29.62 86.88,30.93 86.88,30.93 C105.82,31.38 106.3,59.99 86.88,59.61 L0.38,59.61 C0.38,59.61 -2.52,19.52 43.63,21.37 Z" id="Shape" fill="#494646"></path>
                </g>
                <g id="left" transform="translate(4.000000, 1075.000000)">
                    <polygon id="Shape" fill="#FCC997" points="45.35 0.59 88.88 0.59 88.88 53.38 45.35 53.38"></polygon>
                    <path d="M44.18,21.37 C54.86,29.62 87.43,30.93 87.43,30.93 C106.37,31.38 106.85,59.99 87.43,59.61 L0.93,59.61 C0.93,59.61 -1.97,19.52 44.18,21.37 Z" id="Shape" fill="#494646"></path>
                </g>
                <polygon id="trousers" fill="#404D7B" points="149.77 1089.67 113.42 683.832 99.25 1089.67 43.37 1089.67 17.94 559.54 238.66 560.147 207.49 1089.67 149.77 1089.67"></polygon>
                <path d="M227.06,757.23 C225.611822,758.298001 224.238599,759.464071 222.95,760.72 C200.85,782.5 207.37,827.88 220.11,875.31 L211.66,1018.83 C191.81,1007.44 166.95,990.42 140.1,981.71 L113.42,683.832 L103.21,976.29 C100.64,976.43 98.07,976.65 95.49,977.05 C73.98,980.35 55.51,992.07 39.41,1007.05 L26.63,740.71 C33.080804,735.160319 39.0612176,729.086253 44.51,722.55 C83.34,675.722 94.73,577.22 137.98,569.85 C174.4,563.641 199.09,614.984 235.56,612.76 L227.06,757.23 Z" id="trousers_copy" fill="#3B4771"></path>
                <path d="M65.28,237.693 C77.7908568,233.692398 90.8354108,231.60945 103.97,231.515 C135.67,231.515 175.31,237.693 175.31,237.693 C212.57,241.261 246.56,282.009 246.12,313.809 C250.86,493.319 236.83,574.355 236.83,574.355 C224.28,579.126 205.49,596.645 179.15,600.197 C160.47,602.716 106.09,595.813 85.77,595.959 C42.38,596.27 30.33,585.768 10.95,564.796 C10.95,564.796 -9.36,455.625 7.52,304.543 C7.52,277.9 32.66,246.719 65.28,237.693 Z" id="t-shirt" fill="#F26C4F"></path>
                <path d="M116.4,381.333 L178.16,362.618 C181.15,373.118 184.54,383.225 178.16,392.562 C168.02,407.422 144.18,413.132 122.02,401.92 C120.15,395.058 118.276667,388.195667 116.4,381.333 Z" id="Shape" fill="#D2593F"></path>
                <path d="M83.42,187.476 L130.02,187.476 L130.02,235.151 C130.02,248.317 119.59,258.989 106.72,258.989 C93.85,258.989 83.42,248.317 83.42,235.151 L83.42,187.476 Z" id="neck" fill="#FED1A6"></path>
                <path d="M141.66,51.409 C184.49,73.151 201.32,125.878 179.26,169.181 C157.2,212.484 104.6,229.963 61.77,208.222 C18.94,186.481 24.1,144.922 46.16,101.622 C68.22,58.322 98.83,29.669 141.66,51.409 Z" id="face" fill="#FED1A6"></path>
                <path d="M32.44,68.175 C42.76,85.681 61.94,89.95 84.35,96.055 C104.61,101.574333 125.173333,108.293333 146.04,116.212 C159.85,126.876 150.29,138.535 147.65,141.096 C145.01,143.657 146.5,153.723 157.05,150.682 C157.98,151.051 185.99,145.168 170.12,171.757 C154.25,198.346 148.8,204.257 148.8,204.257 C182.2,192.617 207.49,165.193 214.36,131.635 C220.6,101.112 212.43,61.762 186.84,45.462 C161.71,29.456 135.87,47.698 105.11,37.67 C76.65,28.392 58.36,-4.33 42.75,1.202 C26.88,6.822 18.47,44.479 32.44,68.175 Z" id="hair" fill="#000000" fill-rule="nonzero"></path>
            </g>
            <path d="M2002.16,345.746 L1978.71,320.6 C1976.33468,317.836987 1972.17241,317.514646 1969.4,319.879 L1920.43,365.55 C1917.8734,368.149035 1917.90472,372.327585 1920.5,374.888 L1943.95,400.034 C1946.32506,402.797542 1950.48778,403.119919 1953.26,400.755 L2002.23,355.084 C2004.78164,352.482957 2004.75035,348.308497 2002.16,345.746 Z" id="Rounded_Rectangle_2" fill="#000000" fill-rule="nonzero"></path>
            <path d="M2039.26,548.383 C2010.51665,506.514616 1992.55516,458.197198 1986.97,407.72 C1984.66998,398.239505 1984.66998,388.346495 1986.97,378.866 C1989.62,367.944 2002.55,363.909 2003.2,350.012 C1997.93802,347.619489 1991.9411,347.415475 1986.52869,349.444847 C1981.11628,351.474219 1976.73182,355.570711 1974.34,360.833 C1960.9,344.633 1947.65,339.019 1940.08,342.799 C1937.85,343.913 1934.7,347.262 1932.87,353.619 C1927.81,371.152 1938.31,391.619 1952.7,407.719 C1961.12,460.618333 1969.53667,513.518333 1977.95,566.419 C1991.64,572.98 2007.74,573.643 2021.23,566.419 C2028.85381,562.271877 2035.11541,556.008192 2039.26,548.383 Z" id="Shape" fill="#FCC997"></path>
            <path d="M1884.52,765.2 C1915.05,780.957 1942.75,780.856 1978.43,781.968 C2022.91,783.355 2054.3,783.883 2097.48,768.553 C2098.35,758.958 2099.59,744.775 2099.16,733.34 C2055.04,742.777 2014.15,747.203 1968.7,743.411 C1935.87,740.671 1898.26,732.783 1867.75,723.279 C1868.15,729.703 1868.25,735.546 1870.01,742.179 C1874.54,759.315 1883.01,763.363 1884.52,765.2 Z" id="Shape" fill="#D2593F"></path>
            <path d="M746.311,492.324 C746.311,492.324 775.069,472.924 795.511,483.654 C795.511,483.654 815.165,504.931 754.311,524.375 C754.312,524.375 743.7,512.653 746.311,492.324 Z" id="left_palm" fill="#FDC689"></path>
            <path d="M627.044,514.365 L745.274,492.553 C745.823935,492.431561 746.399587,492.533608 746.874267,492.836683 C747.348948,493.139758 747.683753,493.619023 747.805,494.169 L754.892,522.069 C755.013689,522.619098 754.911623,523.195008 754.6083,523.669783 C754.304977,524.144558 753.825298,524.47922 753.275,524.6 L635.045,550.661 C633.899353,550.913287 632.765989,550.189492 632.513,549.044 L625.426,516.894 C625.175643,515.749053 625.89954,514.617573 627.044,514.365 Z" id="left_arm" fill="#FDC689"></path>
            <path d="M464.782,1240.02 L476.282,1273.19 C476.282,1273.19 507.946,1277.32 534.699,1265.94 L525.938,1232.85 L464.782,1240.02 Z" id="right_leg" fill="#FDC689"></path>
            <path d="M476.21,1272.27 C476.21,1272.27 513.763,1276.98 533.453,1264.26 C533.453,1264.26 570.853,1256.26 583.275,1277.07 C583.275,1277.07 593.344,1307.22 538.753,1309.11 L480.453,1315.52 C480.453,1315.52 475.337,1284.84 476.21,1272.27 Z" id="right_shoe" fill="#494646"></path>
            <path d="M404.125,1243.5 L392.625,1277.12 C392.625,1277.12 360.946,1281.3 334.18,1269.77 L342.946,1236.24 L404.125,1243.5 Z" id="left_leg" fill="#FDC689"></path>
            <path d="M334.358,1265.05 C334.358,1265.05 371.102,1277.69 391.779,1269.26 C391.779,1269.26 429.554,1269.27 439.919,1292.51 C439.919,1292.51 447.089,1324.5 392.863,1314.79 L334.542,1308.78 C334.542,1308.78 332.327,1277.32 334.358,1265.05 Z" id="left_shoe" fill="#494646"></path>
            <path d="M551.763,652.666 C551.763,652.666 526.82,1022.28 408.925,1243.74 L331.253,1243.34 L444.829,698.9 L551.763,652.666 Z" id="left_leg_pant" fill="#807BB0"></path>
            <path d="M342.643,650.732 C342.643,650.732 348.343,976.8 460.309,1243.432 L537.693,1243.432 L448.648,682.77 L342.643,650.732 Z" id="right_leg_pant" fill="#807BB0"></path>
            <path d="M462.936,755.7 C462.936,755.7 459.88,846.728 488.424,940.062" id="Shape" stroke="#6C66A2" stroke-width="2"></path>
            <path d="M390.112,1011.39 C390.112,1011.39 398.327,1076.87 428.96,1138.16" id="Shape_1_copy" stroke="#7F79B7" stroke-width="2"></path>
            <path d="M231.419,604 C231.419,604 232.181,655.286 312.132,710.2 C312.132,710.2 342.532,723.172 360.984,738.874 L365.232,703.828 C365.232,703.828 345.9,687.2 328.061,678.344 C328.061,678.344 285.878,638.128 286.643,610.376 C286.643,610.376 242.536,590.252 231.419,604 Z" id="right_arm" fill="#FDC689"></path>
            <path d="M219.736,604 L300.449,457.443 C300.449,457.443 387.122,379.89 517.098,416.024 C517.098,416.024 653.698,452.793 634.98,550.899 C634.98,550.899 595.01,574.006 556.392,522.225 L556.392,708.08 C556.392,708.08 385.645,700.523 334.433,665.6 L343.991,521.167 L293.015,609.314 C293.015,609.314 244.789,621.35 219.736,604 Z" id="tshrt" fill="#B6E8FF"></path>
            <path d="M343.991,513.733 C354.971,502.946 380.067,499.178 395.384,499.927 C410.841,500.684 424.269,509.139 433.589,519.013 C443.425,529.432 443.4,538.097 452.689,549.004 C459.274,556.734 476.389,573.098 499.081,573.543 C509.067,573.743 515.773,570.477 526.371,570.817 C539.918,571.251 548.371,575.582 550.931,578.996 C556.763,586.785 557.787,597.396 555.784,608.988 C554.901,614.099 555.7,631.288 555.784,644.433 C555.932,667.452 556.15,692.1 556.389,709.143 C520.624,705.327 438.647,706.874 334.43,670.512 C336.252,625.07 342.172,559.175 343.991,513.733 Z" id="shadow" fill="#8EDDFF" opacity="0.75"></path>
            <path d="M557.454,496.741 L556.392,522.229 C556.392,522.229 584.102,569.229 634.98,551.965 C634.98,551.965 619.1,515.52 557.454,496.741 Z" id="Shape" fill="#8EDCFF" opacity="0.75"></path>
            <path d="M433.138,355.528 L455.588,355.528 C459.515754,355.526674 463.283105,357.08597 466.061009,359.862748 C468.838913,362.639527 470.399735,366.406246 470.4,370.334 L470.4,426.7 C470.399448,434.877452 463.770452,441.506448 455.593,441.507 L433.143,441.507 C429.215154,441.508061 425.447806,439.948543 422.66993,437.171605 C419.892055,434.394668 418.331265,430.627846 418.331,426.7 L418.331,370.334 C418.331552,362.15671 424.96071,355.528 433.138,355.528 Z" id="neck-2" fill="#EEBA81"></path>
            <path d="M427.024,239.638 C459.024,227.269 484.742,249.618 500.177,289.556 C515.612,329.494 514.922,381.456 482.917,393.824 C450.912,406.192 412.455,374.286 397.017,334.348 C381.579,294.41 395.019,252.007 427.024,239.638 Z" id="face-2" fill="#FDC689"></path>
            <path d="M365.77,695.356 C365.77,695.356 367.583,727.881 359.937,747.382 C359.937,747.382 374.217,720.55 365.77,695.356 Z" id="right_pocket" fill="#635C9D"></path>
            <path d="M526.479,710.523 C526.479,710.523 528.255,743.071 537.966,761.63 C537.966,761.63 520.882,736.5 526.479,710.523 Z" id="right_pocket_copy" fill="#635C9D"></path>
            <path d="M415.145,294.96 C415.145,294.96 442.145,266.851 494.796,276.906 C494.796,276.906 510.679,276.492 509.664,266.286 C509.664,266.286 481.857,186.123 380.099,243.986 C380.099,243.986 359.505,241.111 358.859,254.606 C358.859,254.606 331.831,360.886 419.393,378.86 L416.207,333.194 C416.207,333.194 396.477,332.331 397.091,316.202 C397.091,316.2 392.436,293.393 415.145,294.96 Z" id="hair-2" fill="#000000" fill-rule="nonzero"></path>
            <path d="M1198.19,856.874 L1215.74,856.874 C1217.06657,856.872405 1218.33927,857.398677 1219.27729,858.336705 C1220.21532,859.274733 1220.74159,860.547429 1220.74,861.874 L1220.74,945.74 C1220.74,948.501424 1218.50142,950.74 1215.74,950.74 L1198.19,950.74 C1195.42858,950.74 1193.19,948.501424 1193.19,945.74 L1193.19,861.874 C1193.19,859.112576 1195.42858,856.874 1198.19,856.874 Z" id="Rounded_Rectangle_4" fill="#000000" fill-rule="nonzero"></path>
            <path d="M1249.47,954.35 C1241.55,947.04 1229.99,927.31 1225.7,932.41 L1218.73,946.35 C1206.96,939.79 1195.19333,933.226667 1183.43,926.66 C1179.93317,933.276099 1177.76252,940.511607 1177.04,947.96 C1175.98781,959.474364 1178.36411,971.042755 1183.87,981.21 C1203.61,985.75 1223.34667,990.29 1243.08,994.83 C1245.21,981.34 1247.34,967.846667 1249.47,954.35 Z" id="Shape" fill="#FDB773"></path>
            <polygon id="Shape" fill="#FDB773" points="945.728 1197.32 966.642 1197.32 966.642 1280.97 945.728 1280.97"></polygon>
            <path d="M945.728,1190.35 C941.648,1176.27 925.128,1175.65 917.552,1163.14 C907.452,1146.47 905.185,1118.96 889.958,1106.69 C888.644003,1102.82669 885.346251,1099.97404 881.334,1099.23 C875.999799,1098.55046 870.902957,1101.64423 869.044,1106.69 C866.249,1134.77 864.675,1162.63 864.29,1190.83 C863.783524,1227.90996 865.370716,1264.98895 869.044,1301.89 L931.785,1287.94 L945.728,1287.94 L945.728,1190.35 Z" id="Shape" fill="#494646"></path>
            <path d="M1071.212,1232.17 C1134.327,1170.1 1240.212,1041.61 1260.56,1045.96 C1333.54,1053.97 1400.94,1077.91 1458.69,1118.4 C1471.88687,1127.65447 1484.50078,1137.71354 1496.46,1148.52 C1447.66,1164.78 1398.86333,1181.04667 1350.07,1197.32 L1287.32,1148.52 L1175.78,1253.09 L1071.212,1232.17 Z" id="Shape" fill="#7973AE"></path>
            <path d="M994.527,1197.32 C1083.553,1195.65 1170.75,1191.06 1259.44,1183.37 C1322.83,1177.88 1384.6,1171.02 1447.66,1162.46 C1510.41,1174.08 1573.15333,1185.7 1635.89,1197.32 C1642.45363,1224.77338 1634.57134,1253.67886 1614.98,1274 C1593.66,1295.86 1561.33,1304.09 1531.32,1294.92 C1354.71,1292.58667 1178.103,1290.26 1001.499,1287.94 L1001.499,1308.86 C995.945588,1314.23503 988.252639,1316.79886 980.585,1315.83 C975.310133,1315.06203 970.42194,1312.61846 966.642,1308.86 L966.642,1176.4 C969.933833,1172.0122 975.09916,1169.43 980.5845,1169.43 C986.06984,1169.43 991.235167,1172.0122 994.527,1176.4 L994.527,1197.32 Z" id="Shape" fill="#8781BD"></path>
            <path d="M1518.51,895.68 L1635.89,897.55 C1639.78,937.29 1642.46,976.25 1644.04,1016.14 C1646.53,1078.97 1646.14,1141.44 1642.86,1204.29 C1607.71186,1202.18061 1572.76329,1197.52169 1538.29,1190.35 C1505.13411,1183.38903 1472.51778,1174.06865 1440.69,1162.46 C1440.69,1106.69 1443.77,1065.52 1443.77,1009.75 C1463.65,1004.24 1447.94,1003.95 1465.11,965.27 C1475.88,941 1521.99,917.6 1518.51,895.68 Z" id="Shape" fill="#7CC576"></path>
            <path d="M1539.29,835.159 L1586.1,835.159 C1586.65228,835.159 1587.1,835.606715 1587.1,836.159 L1587.1,876.059 C1587.1,876.611285 1586.65228,877.059 1586.1,877.059 L1539.29,877.059 C1539.02306,877.06167 1538.76612,876.957492 1538.57642,876.769666 C1538.38672,876.581839 1538.27999,876.325958 1538.28,876.059 L1538.28,836.159 C1538.27999,835.892042 1538.38672,835.636161 1538.57642,835.448334 C1538.76612,835.260508 1539.02306,835.15633 1539.29,835.159 Z" id="Rounded_Rectangle_1-4" fill="#FDB773"></path>
            <path d="M1503.43,870.06 L1628.92,870.06 C1635.69,875.42 1642.69,875.56 1644.04,884.05 C1645.97,896.18 1643.22,894.51 1635.89,904.52 L1503.43,904.52 C1497.53,893.83 1497.27,898.31 1497.04,886.18 C1496.91,879.61 1499.74,876.55 1503.43,870.06 Z" id="Shape" fill="#6EB867"></path>
            <path d="M1519.02,905.35 C1518.71,936.7 1503.67,963.25 1478.54,982.05 C1456.91,998.23 1432.14,1014.05 1403.22,1016.06 C1352.1,992.82 1300.97667,969.583333 1249.85,946.35 L1235.91,995.15 L1416.76,1094.96 C1451.11,1089.14 1478.11,1082.39 1508.36,1065.14 C1537.27,1048.66 1556.77,1030.56 1578.67,1005.49 C1591.17,988.66 1602.78,975.92 1610.63,956.48 C1613.94,948.28 1633.75,926.2 1629.8,905.35 C1592.90885,907.640322 1555.91115,907.640322 1519.02,905.35 Z" id="Shape" fill="#7CC576"></path>
            <path d="M1547.72,712.81 C1562.78901,713.539548 1576.94923,720.232129 1587.07893,731.412315 C1597.20862,742.5925 1602.47606,757.342296 1601.72,772.41 L1600.55,797.429 C1599.15745,828.836856 1572.60063,853.188509 1541.19,851.86 C1526.11931,851.13276 1511.9567,844.441215 1501.82492,833.260803 C1491.69314,822.080392 1486.42425,807.329287 1487.18,792.26 L1488.36,767.242 C1489.74824,735.831984 1516.30757,711.477582 1547.72,712.81 Z" id="face-3" fill="#FDB773"></path>
            <path d="M1486.17,820.264 C1491.08,828.012 1508.06,851.678 1512.6,854.364 C1514.57,851.332 1514.4,846.101 1514.65,841.227 C1507.93,831.627 1492.39,805.872 1491.86,802.118 C1491.08,796.532 1499.22,772.937 1498.2,765.486 C1497.43,759.807 1495.27,738.826 1494.92,737.694 C1494.91159,737.676745 1494.90154,737.660336 1494.89,737.645 C1494.9,737.635 1494.91,737.655 1494.92,737.694 C1496.63,741.542 1522.8,745.839 1545.24,748.756 C1550.63,749.456 1558.01,761.923 1557.43,768.385 C1556.91,774.29 1568.78,782.748 1571.29,782.666 C1573.69,782.589 1579.6,778.681 1580.94,773.876 C1582.39,768.676 1599.46,771.311 1599.16,779.323 C1598.85,787.745 1594.12,794.838 1588.86,801.923 C1583.6,809.008 1578.7,812.223 1578.36,819.215 C1577.87,829.351 1576.6,856.499 1576.57,857.278 C1576.53,858.391 1570.06,857.398 1561.42,855.578 C1568.77,861.612 1574.65,866.27 1576.31,866.07 C1578.78,865.779 1585.74,861.87 1585.74,861.87 C1585.74,861.87 1618.33,841.247 1623.88,835.815 C1629.43,830.383 1644,813.826 1645.51,804.374 C1646.82,796.184 1667.6,662.3 1524.26,696.924 C1513.08,699.624 1473.72,731.248 1471.01,750.085 C1468.3,768.922 1481.26,812.517 1486.17,820.264 Z" id="hair-3" fill="#000000" fill-rule="nonzero"></path>
            <path d="M1439.21,1162.72 C1467.9,1153.18 1495.44,1150.77 1521.75,1156.24 C1548.49,1161.81 1585.85,1191.35 1605.91,1182.14 C1632.17,1170.08 1628.3,1110.76 1626.95,1078.56 C1624.59,1022.45 1628.01,964.76 1636.66,905.39 C1641.03,950.86 1643.69,995.67 1644.75,1041.34 C1646,1095.49 1644.93,1149.1 1641.51,1203.18 C1572.11581,1202.69523 1503.45262,1188.96259 1439.21,1162.72 Z" id="Shape" fill="#6BB265" opacity="0.62"></path>
            <path d="M812.023,188.514 L812.5,188.514 C815.537566,188.514 818,190.976434 818,194.014 L818,226.85 C818,229.887566 815.537566,232.35 812.5,232.35 L812.019,232.35 C808.981434,232.35 806.519,229.887566 806.519,226.85 L806.519,194.014 C806.519,192.554616 807.099011,191.155063 808.131327,190.123498 C809.163642,189.091933 810.563616,188.512939 812.023,188.514 Z M1032.247,188.514 L1032.727,188.514 C1035.76457,188.514 1038.227,190.976434 1038.227,194.014 L1038.227,226.85 C1038.227,229.887566 1035.76457,232.35 1032.727,232.35 L1032.247,232.35 C1029.20943,232.35 1026.747,229.887566 1026.747,226.85 L1026.747,194.014 C1026.747,190.976434 1029.20943,188.514 1032.247,188.514 Z M1252.47,188.514 L1252.95,188.514 C1255.98757,188.514 1258.45,190.976434 1258.45,194.014 L1258.45,226.85 C1258.45,229.887566 1255.98757,232.35 1252.95,232.35 L1252.47,232.35 C1249.43243,232.35 1246.97,229.887566 1246.97,226.85 L1246.97,194.014 C1246.97,190.976434 1249.43243,188.514 1252.47,188.514 Z M1472.69,188.514 L1473.17,188.514 C1476.20757,188.514 1478.67,190.976434 1478.67,194.014 L1478.67,226.85 C1478.67,229.887566 1476.20757,232.35 1473.17,232.35 L1472.69,232.35 C1469.65358,232.347243 1467.19276,229.886424 1467.19,226.85 L1467.19,194.014 C1467.19,190.976434 1469.65243,188.514 1472.69,188.514 Z" id="Rounded_Rectangle_5_copy_3" fill="#9C9C9C"></path>
            <polygon id="Shape" fill="url(#linearGradient-1)" opacity="0.5" points="1227.21 860.879 1223.81 938.01 1351.98 905.12 1492.24 858.959 1446.81 797.274"></polygon>
        </g>
    </g>
</svg>
